<?xml version="1.0" encoding="UTF-8" standalone="no"?>
<svg width="102px" height="101px" viewBox="0 0 102 101" version="1.1" xmlns="http://www.w3.org/2000/svg" xmlns:xlink="http://www.w3.org/1999/xlink">
    <!-- Generator: Sketch 3.7 (28169) - http://www.bohemiancoding.com/sketch -->
    <title>flower</title>
    <desc>Created with Sketch.</desc>
    <defs>
        <linearGradient x1="50%" y1="100%" x2="29.307294%" y2="0%" id="linearGradient-1">
            <stop stop-color="#FEF57B" offset="0%"></stop>
            <stop stop-color="#F8E02D" offset="100%"></stop>
        </linearGradient>
        <linearGradient x1="50%" y1="100%" x2="50%" y2="0%" id="linearGradient-2">
            <stop stop-color="#48D0F9" offset="0%"></stop>
            <stop stop-color="#2AA7F0" offset="100%"></stop>
        </linearGradient>
    </defs>
    <g id="Anim-blueFlower" stroke="none" stroke-width="1" fill="none" fill-rule="evenodd">
        <g id="flower">
            <ellipse id="center" fill="url(#linearGradient-1)" transform="translate(51.500000, 50.500000) scale(-1, 1) translate(-51.500000, -50.500000) " cx="51.5" cy="50.5" rx="12.5" ry="12.5"></ellipse>
            <g id="wrapper8" transform="translate(28.000000, 27.384776) rotate(-45.000000) translate(-28.000000, -27.384776) translate(19.000000, 10.384776)">
                <rect id="placeholder1" fill-opacity="0" fill="#D8D8D8" x="0.670043945" y="0" width="16.6700001" height="33.3300018"></rect>
                <path d="M9.00504398,33.3300018 C13.4529861,33.3300018 17.340044,22.5358266 17.340044,13.3320007 C17.340044,4.12817487 13.8274808,-1.16418901e-15 9.00504398,0 C4.18260721,1.18080214e-15 0.670043945,4.12817487 0.670043945,13.3320007 C0.670043945,22.5358266 4.55710186,33.3300018 9.00504398,33.3300018 Z" id="petal1" fill="url(#linearGradient-2)"></path>
            </g>
            <g id="wrapper7" transform="translate(17.000000, 51.000000) rotate(-90.000000) translate(-17.000000, -51.000000) translate(8.000000, 34.000000)">
                <rect id="placeholder1" fill-opacity="0" fill="#D8D8D8" x="0.670043945" y="0" width="16.6700001" height="33.3300018"></rect>
                <path d="M9.00504398,33.3300018 C13.4529861,33.3300018 17.340044,22.5358266 17.340044,13.3320007 C17.340044,4.12817487 13.8274808,-1.16418901e-15 9.00504398,0 C4.18260721,1.18080214e-15 0.670043945,4.12817487 0.670043945,13.3320007 C0.670043945,22.5358266 4.55710186,33.3300018 9.00504398,33.3300018 Z" id="petal1" fill="url(#linearGradient-2)"></path>
            </g>
            <g id="wrapper6" transform="translate(29.000000, 74.384776) rotate(-135.000000) translate(-29.000000, -74.384776) translate(20.000000, 57.384776)">
                <rect id="placeholder1" fill-opacity="0" fill="#D8D8D8" x="0.670043945" y="0" width="16.6700001" height="33.3300018"></rect>
                <path d="M9.00504398,33.3300018 C13.4529861,33.3300018 17.340044,22.5358266 17.340044,13.3320007 C17.340044,4.12817487 13.8274808,-1.16418901e-15 9.00504398,0 C4.18260721,1.18080214e-15 0.670043945,4.12817487 0.670043945,13.3320007 C0.670043945,22.5358266 4.55710186,33.3300018 9.00504398,33.3300018 Z" id="petal1" fill="url(#linearGradient-2)"></path>
            </g>
            <g id="wrapper5" transform="translate(51.500000, 84.000000) rotate(-180.000000) translate(-51.500000, -84.000000) translate(42.500000, 67.000000)">
                <rect id="placeholder1" fill-opacity="0" fill="#D8D8D8" x="0.670043945" y="0" width="16.6700001" height="33.3300018"></rect>
                <path d="M9.00504398,33.3300018 C13.4529861,33.3300018 17.340044,22.5358266 17.340044,13.3320007 C17.340044,4.12817487 13.8274808,-1.16418901e-15 9.00504398,0 C4.18260721,1.18080214e-15 0.670043945,4.12817487 0.670043945,13.3320007 C0.670043945,22.5358266 4.55710186,33.3300018 9.00504398,33.3300018 Z" id="petal1" fill="url(#linearGradient-2)"></path>
            </g>
            <g id="wrapper4" transform="translate(75.000000, 74.384776) rotate(-225.000000) translate(-75.000000, -74.384776) translate(66.000000, 57.384776)">
                <rect id="placeholder1" fill-opacity="0" fill="#D8D8D8" x="0.670043945" y="0" width="16.6700001" height="33.3300018"></rect>
                <path d="M9.00504398,33.3300018 C13.4529861,33.3300018 17.340044,22.5358266 17.340044,13.3320007 C17.340044,4.12817487 13.8274808,-1.16418901e-15 9.00504398,0 C4.18260721,1.18080214e-15 0.670043945,4.12817487 0.670043945,13.3320007 C0.670043945,22.5358266 4.55710186,33.3300018 9.00504398,33.3300018 Z" id="petal1" fill="url(#linearGradient-2)"></path>
            </g>
            <g id="wrapper3" transform="translate(85.000000, 51.000000) rotate(-270.000000) translate(-85.000000, -51.000000) translate(76.000000, 34.000000)">
                <rect id="placeholder1" fill-opacity="0" fill="#D8D8D8" x="0.670043945" y="0" width="16.6700001" height="33.3300018"></rect>
                <path d="M9.00504398,33.3300018 C13.4529861,33.3300018 17.340044,22.5358266 17.340044,13.3320007 C17.340044,4.12817487 13.8274808,-1.16418901e-15 9.00504398,0 C4.18260721,1.18080214e-15 0.670043945,4.12817487 0.670043945,13.3320007 C0.670043945,22.5358266 4.55710186,33.3300018 9.00504398,33.3300018 Z" id="petal1" fill="url(#linearGradient-2)"></path>
            </g>
            <g id="wrapper2" transform="translate(75.000000, 27.384776) rotate(-315.000000) translate(-75.000000, -27.384776) translate(66.000000, 10.384776)">
                <rect id="placeholder1" fill-opacity="0" fill="#D8D8D8" x="0.670043945" y="0" width="16.6700001" height="33.3300018"></rect>
                <path d="M9.00504398,33.3300018 C13.4529861,33.3300018 17.340044,22.5358266 17.340044,13.3320007 C17.340044,4.12817487 13.8274808,-1.16418901e-15 9.00504398,0 C4.18260721,1.18080214e-15 0.670043945,4.12817487 0.670043945,13.3320007 C0.670043945,22.5358266 4.55710186,33.3300018 9.00504398,33.3300018 Z" id="petal1" fill="url(#linearGradient-2)"></path>
            </g>
            <g id="wrapper1" transform="translate(42.500000, 0.000000)">
                <rect id="placeholder1" fill-opacity="0" fill="#D8D8D8" x="0.670043945" y="0" width="16.6700001" height="33.3300018"></rect>
                <path d="M9.00504398,33.3300018 C13.4529861,33.3300018 17.340044,22.5358266 17.340044,13.3320007 C17.340044,4.12817487 13.8274808,-1.16418901e-15 9.00504398,0 C4.18260721,1.18080214e-15 0.670043945,4.12817487 0.670043945,13.3320007 C0.670043945,22.5358266 4.55710186,33.3300018 9.00504398,33.3300018 Z" id="petal1" fill="url(#linearGradient-2)"></path>
            </g>
        </g>
    </g>
</svg>
